<?xml version="1.0" standalone="no"?>
<!DOCTYPE svg PUBLIC "-//W3C//DTD SVG 20010904//EN"
 "http://www.w3.org/TR/2001/REC-SVG-20010904/DTD/svg10.dtd">
<svg version="1.0" xmlns="http://www.w3.org/2000/svg"
 width="489.000000pt" height="252.000000pt" viewBox="0 0 489.000000 252.000000"
 preserveAspectRatio="xMidYMid meet">
<metadata>
Created by potrace 1.15, written by Peter Selinger 2001-2017
</metadata>
<g transform="translate(0.000000,252.000000) scale(0.100000,-0.100000)"
fill="#000000" stroke="none">
<path d="M1510 2304 c-134 -26 -240 -83 -341 -183 -87 -87 -152 -203 -172
-308 l-11 -62 -66 -3 -65 -3 -3 -67 -3 -67 67 -3 67 -3 17 -70 c44 -187 160
-334 330 -420 93 -47 172 -65 281 -65 112 0 197 19 282 61 212 107 338 301
354 545 6 88 9 100 37 138 41 54 105 86 172 86 67 0 93 -10 144 -56 57 -52 70
-81 70 -161 1 -274 203 -529 475 -598 76 -19 234 -19 310 0 112 29 203 81 290
169 92 93 144 185 171 304 l16 72 60 0 59 0 -3 68 -3 67 -56 3 -56 3 -17 67
c-101 418 -567 619 -936 405 -92 -54 -189 -155 -236 -247 l-39 -75 -25 23
c-39 35 -72 53 -130 70 -102 30 -197 14 -290 -50 -28 -19 -53 -34 -54 -32 -2
2 -18 32 -37 68 -68 130 -198 240 -349 295 -60 22 -96 28 -180 30 -58 2 -116
1 -130 -1z m212 -135 c178 -37 335 -189 383 -370 19 -71 19 -180 0 -254 -51
-193 -224 -347 -423 -375 -228 -32 -463 105 -541 315 -77 206 -29 411 131 561
119 112 284 157 450 123z m1701 -4 c254 -66 420 -319 377 -573 -46 -272 -300
-459 -572 -422 -293 40 -497 341 -423 625 71 271 351 440 618 370z"/>
<path d="M2173 651 c-125 -32 -182 -193 -115 -322 35 -67 90 -99 169 -99 68 0
110 18 150 63 84 96 62 272 -43 333 -46 27 -113 37 -161 25z m107 -86 c44 -23
63 -67 58 -137 -3 -46 -10 -64 -32 -87 -50 -52 -131 -46 -167 12 -27 43 -23
155 6 187 37 41 86 50 135 25z"/>
<path d="M3633 651 c-89 -22 -138 -97 -138 -211 0 -63 4 -82 27 -120 35 -61
88 -90 165 -90 95 0 157 45 170 123 l6 38 -44 -3 c-35 -2 -45 -7 -47 -23 -15
-80 -144 -80 -177 -1 -34 81 -8 184 53 207 54 21 122 -11 122 -58 0 -21 4 -23
45 -23 39 0 45 3 45 20 0 94 -119 168 -227 141z"/>
<path d="M1491 640 c-49 -12 -91 -58 -98 -108 -5 -37 -2 -45 29 -76 20 -20 53
-39 78 -46 116 -32 125 -36 128 -60 5 -32 -22 -50 -75 -50 -33 0 -50 6 -68 25
-14 13 -25 29 -25 35 0 5 -19 10 -41 10 l-42 0 6 -36 c12 -72 74 -114 169
-114 110 0 175 57 164 143 -6 56 -39 84 -121 108 -108 31 -117 36 -113 62 2
16 13 24 38 30 48 12 88 -5 101 -43 10 -27 15 -30 51 -30 l41 0 -6 36 c-12 71
-54 108 -137 117 -25 3 -60 2 -79 -3z"/>
<path d="M280 430 l0 -210 40 0 40 0 0 79 c0 71 2 80 23 94 22 14 24 12 88
-77 l65 -91 52 -3 c29 -2 52 0 52 4 0 4 -39 59 -87 123 l-86 115 87 80 c47 45
86 84 86 89 0 4 -24 7 -53 7 -52 0 -55 -2 -137 -75 l-85 -76 -3 76 -3 75 -39
0 -40 0 0 -210z"/>
<path d="M697 634 c-4 -4 -7 -99 -7 -211 l0 -203 45 0 45 0 -2 208 -3 207 -35
3 c-20 2 -39 0 -43 -4z"/>
<path d="M897 634 c-4 -4 -7 -99 -7 -211 l0 -204 43 3 42 3 3 110 4 110 37
-110 38 -110 35 -3 36 -3 38 118 39 118 3 -117 3 -118 34 0 35 0 0 211 0 210
-47 -3 -48 -3 -46 -135 c-36 -103 -49 -130 -55 -115 -4 10 -24 71 -45 135
l-36 115 -50 3 c-27 2 -52 0 -56 -4z"/>
<path d="M2520 430 l0 -210 35 0 35 0 0 85 0 85 75 0 c84 0 121 14 154 56 25
32 28 92 6 134 -25 49 -60 60 -190 60 l-115 0 0 -210z m218 128 c7 -7 12 -24
12 -39 0 -40 -33 -59 -102 -59 l-58 0 0 55 0 55 68 0 c40 0 73 -5 80 -12z"/>
<path d="M2880 605 l0 -35 65 0 65 0 2 -172 3 -173 45 0 45 0 3 173 2 172 60
0 60 0 0 35 0 35 -175 0 -175 0 0 -35z"/>
<path d="M3305 628 c-3 -8 -4 -101 -3 -208 l3 -195 45 0 45 0 0 205 0 205 -43
3 c-28 2 -44 -1 -47 -10z"/>
<path d="M4051 618 c-69 -178 -151 -391 -151 -394 0 -2 20 -4 44 -4 l44 0 22
60 22 60 68 0 68 0 22 -60 22 -60 44 0 c24 0 44 5 44 10 0 6 -37 100 -82 210
l-82 200 -38 0 c-31 0 -40 -5 -47 -22z"/>
<path d="M4350 430 l0 -210 140 0 140 0 0 45 0 45 -100 0 -100 0 0 165 0 165
-40 0 -40 0 0 -210z"/>
</g>
</svg>
